<?xml version="1.0" encoding="UTF-8" standalone="no"?>
<!-- Generator: Adobe Illustrator 25.0.0, SVG Export Plug-In . SVG Version: 6.00 Build 0)  -->

<svg
   version="1.1"
   id="图层_1"
   x="0px"
   y="0px"
   viewBox="0 0 358.54608 66.596909"
   xml:space="preserve"
   width="358.54608"
   height="66.596909"
   xmlns="http://www.w3.org/2000/svg"
   xmlns:svg="http://www.w3.org/2000/svg"><defs
   id="defs508" />
<style
   type="text/css"
   id="style1">
	.st0{fill:#F2F2F2;}
	.st1{opacity:0.47;fill:#FFFFFF;}
	.st2{fill:#333333;}
	.st3{fill:#00A0E9;}
	.st4{fill:#1144B7;}
	.st5{clip-path:url(#XMLID_4_);fill:#009FE8;}
	.st6{clip-path:url(#XMLID_4_);fill:#FFFFFF;}
	.st7{opacity:0.77;clip-path:url(#XMLID_4_);fill:#F4F4F4;}
	.st8{opacity:0.4;clip-path:url(#XMLID_4_);fill:#00A0E9;}
	.st9{clip-path:url(#XMLID_4_);fill:url(#XMLID_5_);}
	.st10{opacity:0.4;clip-path:url(#XMLID_4_);}
	.st11{clip-path:url(#XMLID_4_);}
	.st12{fill:#F4F4F4;}
	.st13{fill:#474342;}
	.st14{opacity:0.77;}
	.st15{fill:#595757;}
	.st16{fill:#FFFFFF;}
	.st17{opacity:0.47;fill:#565766;}
	.st18{fill:#3E3A39;}
	.st19{fill:url(#SVGID_1_);}
	.st20{fill:#54B5F7;}
	.st21{fill:url(#SVGID_2_);}
	.st22{fill:url(#SVGID_3_);}
	.st23{fill:url(#SVGID_4_);}
	.st24{fill:url(#SVGID_5_);}
	.st25{fill:url(#SVGID_6_);}
	.st26{fill:url(#SVGID_7_);}
	.st27{fill:url(#SVGID_8_);}
	.st28{fill:url(#SVGID_9_);}
	.st29{fill:url(#SVGID_10_);}
	.st30{fill:url(#SVGID_11_);}
	.st31{fill:url(#SVGID_12_);}
	.st32{fill:url(#SVGID_13_);}
	.st33{opacity:0.7;}
	.st34{fill:#383838;}
	.st35{clip-path:url(#SVGID_15_);fill:#383838;}
	.st36{clip-path:url(#SVGID_17_);fill:#383838;}
	.st37{clip-path:url(#SVGID_19_);fill:#383838;}
	.st38{clip-path:url(#SVGID_21_);fill:#383838;}
	.st39{clip-path:url(#SVGID_23_);fill:#383838;}
	.st40{fill-rule:evenodd;clip-rule:evenodd;fill:#1144B7;}
	.st41{fill-rule:evenodd;clip-rule:evenodd;fill:#3E3A39;}
	.st42{clip-path:url(#SVGID_25_);}
	.st43{opacity:0.3;}
	.st44{clip-path:url(#SVGID_29_);fill-rule:evenodd;clip-rule:evenodd;}
	.st45{fill:none;stroke:#FFFFFF;stroke-width:1.682;stroke-miterlimit:10;}
	.st46{fill:none;stroke:#FF0036;stroke-width:1.682;stroke-miterlimit:10;}
	.st47{fill:url(#SVGID_30_);}
	.st48{fill:url(#SVGID_31_);}
	.st49{fill:url(#SVGID_32_);}
	.st50{fill:url(#SVGID_33_);}
</style>










































<linearGradient
   id="SVGID_1_"
   gradientUnits="userSpaceOnUse"
   x1="10798.377"
   y1="3397.8381"
   x2="12458.55"
   y2="3397.8381"
   gradientTransform="rotate(180,6291.3916,3145.4268)">
	<stop
   offset="0"
   style="stop-color:#5CC3FF"
   id="stop8" />
	<stop
   offset="1"
   style="stop-color:#0027A6"
   id="stop9" />
</linearGradient>








<g
   id="g60"
   transform="translate(-783.18,-4822.4831)">
	<path
   class="st16"
   d="m 877.4,4851.46 c 10.58,-0.3 10.58,17.44 0,17.14 -10.49,0.4 -10.49,-17.54 0,-17.14 z m 1.54,-7.8 c -4.17,0 -7.38,1.75 -9.41,4.19 -0.32,-0.13 0.05,24.6 0.13,24.3 8.37,9.91 25.27,1.21 24.36,-12.13 0,-9.33 -6.48,-16.36 -15.08,-16.36 z"
   id="path47" />
	<g
   id="g51">
		<path
   class="st16"
   d="m 959.95,4840.49 c -1.75,2.71 28.52,16.91 26.48,16.67 3.44,2.49 1.03,7.88 -0.29,11.01 -5.39,2.53 2.83,7.92 3,1.98 2.41,-4.78 4.75,-12.75 -0.94,-16.1 0,0 -24.29,-13.8 -24.29,-13.8 3.31,-6.69 14.2,-4 13.95,3.52 0,0.59 0.48,1.07 1.07,1.07 7.2,0.44 -1.82,-13.54 -8.49,-12.06 -4.83,0 -9.05,3.1 -10.49,7.71 z"
   id="path48" />
		<path
   class="st16"
   d="m 960.93,4824.77 c -5.86,0.43 -0.25,8.35 2.1,2.96 11.31,-5.53 25.36,3.42 25.09,16.04 0,0.59 0.48,1.07 1.07,1.07 0.93,-0.02 2.47,0.27 2.51,-1.07 0.34,-15.45 -17.16,-26.2 -30.77,-19 z"
   id="path49" />
		<path
   class="st16"
   d="m 953.91,4830.92 c -1.4,0.08 -2.48,1.42 -2.19,2.8 -2.39,4.77 -4.71,12.72 0.97,16.06 0,0 24.29,13.8 24.29,13.8 -3.31,6.69 -14.19,4 -13.95,-3.52 -0.02,-1.56 -3.56,-1.56 -3.57,0 -0.32,12.41 18.45,15.04 21.56,3.04 0.21,-0.66 -0.08,-1.38 -0.68,-1.72 -4.94,-2.81 -25.88,-14.71 -25.88,-14.71 -3.46,-2.51 -1.01,-7.94 0.33,-11.1 2.63,-0.74 1.86,-4.89 -0.88,-4.65 z"
   id="path50" />
		<path
   class="st16"
   d="m 950.26,4858.99 c -0.57,-0.01 -1.08,0.49 -1.07,1.07 -0.28,14.55 15.24,25.24 28.72,19.89 5.89,0.12 1.05,-8.3 -1.81,-3.15 -11.15,3.99 -23.55,-4.87 -23.34,-16.74 -0.03,-1.33 -1.58,-1.05 -2.5,-1.07 z"
   id="path51" />
	</g>
	<path
   class="st16"
   d="m 1047.44,4851.46 c 10.81,-0.46 10.81,17.6 0,17.14 -10.77,0.46 -10.77,-17.61 0,-17.14 z m 0,-7.8 c -22.08,-0.31 -22.08,33.05 0,32.73 22.16,0.32 22.16,-33.04 0,-32.73 z"
   id="path52" />
	<path
   class="st16"
   d="m 1085.98,4851.46 c 10.81,-0.46 10.81,17.6 0,17.14 -10.77,0.46 -10.77,-17.61 0,-17.14 z m 0,-7.8 c -22.09,-0.31 -22.08,33.05 0,32.73 22.17,0.32 22.17,-33.04 0,-32.73 z"
   id="path53" />
	<path
   class="st16"
   d="m 868.13,4875.75 h -6.04 c -0.8,0 -1.46,-0.65 -1.46,-1.46 v -42.32 c 0,-0.8 0.65,-1.46 1.46,-1.46 h 6.04 c 0.8,0 1.46,0.65 1.46,1.46 v 42.32 c 0,0.81 -0.65,1.46 -1.46,1.46 z"
   id="path54" />
	<path
   class="st16"
   d="m 1125.06,4850.99 c 10.58,-0.3 10.58,17.44 0,17.14 -10.48,0.4 -10.48,-17.54 0,-17.14 z m 16.63,8.57 c 0.92,-13.34 -15.98,-22.04 -24.36,-12.13 -0.08,-0.3 -0.46,24.44 -0.13,24.3 2.02,2.44 5.23,4.19 9.41,4.19 8.59,0.01 15.08,-7.02 15.08,-16.36 z"
   id="path55" />
	<path
   class="st16"
   d="m 1115.8,4843.84 h -6.04 c -0.8,0 -1.46,0.65 -1.46,1.46 v 42.32 c 0,0.8 0.65,1.46 1.46,1.46 h 6.04 c 0.8,0 1.46,-0.65 1.46,-1.46 v -42.32 c 0,-0.81 -0.66,-1.46 -1.46,-1.46 z"
   id="path56" />
	<path
   class="st16"
   d="m 813.07,4875.75 h 7.43 c 1.17,0 1.8,-1.37 1.04,-2.26 l -17.86,-20.81 17.24,-19.9 c 0.77,-0.89 0.14,-2.26 -1.03,-2.26 h -7.64 c -0.39,0 -0.75,0.16 -1.01,0.45 l -18.41,20.3 h -0.69 v -19.38 c 0,-0.76 -0.61,-1.37 -1.37,-1.37 h -6.22 c -0.76,0 -1.37,0.61 -1.37,1.37 v 42.5 c 0,0.76 0.61,1.37 1.37,1.37 h 6.22 c 0.76,0 1.37,-0.61 1.37,-1.37 v -17.16 h 4.42 l 15.49,18.05 c 0.24,0.3 0.62,0.47 1.02,0.47 z"
   id="path57" />
	<g
   id="g58">
		<path
   class="st16"
   d="m 838.71,4875.82 c -7.77,-0.38 -13.73,-7.08 -13.73,-14.86 v -14.03 c 0,-1.98 0.61,-2.58 1.37,-2.58 h 5.24 c 0.76,0 1.37,0.61 1.37,1.37 v 15.43 c 0,3.29 2.36,6.23 5.63,6.65 3.95,0.51 7.33,-2.57 7.33,-6.42 v -15.63 c 0,-0.75 0.61,-1.37 1.37,-1.37 h 5.24 c 0.76,0 1.37,0.61 1.37,1.37 v 15.63 c -0.01,8.21 -6.89,14.85 -15.19,14.44 z"
   id="path58" />
	</g>
	<path
   class="st16"
   d="m 914.05,4843.66 c -20.91,-0.57 -20.8,33.63 0.42,32.73 1.37,-0.02 3.51,-0.23 5.64,-0.69 0,0 0.01,0 0.01,0 0.01,0 0.02,-0.01 0.04,-0.01 0.2,-0.04 0.4,-0.09 0.6,-0.14 0.21,-0.05 0.42,-0.1 0.62,-0.16 2.15,-0.68 4.08,-2.02 5.2,-2.92 0.59,-0.47 0.68,-1.34 0.21,-1.93 l -2.82,-3.49 c -0.43,-0.54 -1.2,-0.67 -1.78,-0.3 l -1.97,1.21 c -5.12,2.54 -12.02,1.57 -13.25,-5.15 H 929 c 1.44,-10.15 -4.95,-19.42 -14.95,-19.15 z m -7.06,13.45 c 0.74,-3.85 3.05,-6.23 7,-6.23 3.59,0 6,2.25 6.77,6.23 z"
   id="path59" />
	<path
   class="st16"
   d="m 1026.79,4844.46 h -7.73 c -0.39,0 -0.76,0.17 -1.02,0.46 l -9.36,10.56 h -0.75 v -23.6 c 0,-0.76 -0.61,-1.37 -1.37,-1.37 h -6.22 c -0.76,0 -1.37,0.61 -1.37,1.37 v 42.5 c 0,0.76 0.61,1.37 1.37,1.37 h 6.22 c 0.76,0 1.37,-0.61 1.37,-1.37 v -11.37 h 2.71 l 8.75,12.17 c 0.26,0.36 0.67,0.57 1.11,0.57 h 6.15 c 1.11,0 1.76,-1.26 1.11,-2.17 l -10.28,-14.3 10.37,-12.59 c 0.73,-0.89 0.09,-2.23 -1.06,-2.23 z"
   id="path60" />
</g>













































































</svg>
