<?xml version="1.0" encoding="UTF-8" standalone="no"?>
<!-- Generator: Adobe Illustrator 25.0.0, SVG Export Plug-In . SVG Version: 6.00 Build 0)  -->

<svg
   version="1.1"
   id="图层_1"
   x="0px"
   y="0px"
   viewBox="0 0 127.15366 175.84017"
   xml:space="preserve"
   width="127.15366"
   height="175.84016"
   xmlns="http://www.w3.org/2000/svg"
   xmlns:svg="http://www.w3.org/2000/svg"><defs
   id="defs508" />
<style
   type="text/css"
   id="style1">
	.st0{fill:#F2F2F2;}
	.st1{opacity:0.47;fill:#FFFFFF;}
	.st2{fill:#333333;}
	.st3{fill:#00A0E9;}
	.st4{fill:#1144B7;}
	.st5{clip-path:url(#XMLID_4_);fill:#009FE8;}
	.st6{clip-path:url(#XMLID_4_);fill:#FFFFFF;}
	.st7{opacity:0.77;clip-path:url(#XMLID_4_);fill:#F4F4F4;}
	.st8{opacity:0.4;clip-path:url(#XMLID_4_);fill:#00A0E9;}
	.st9{clip-path:url(#XMLID_4_);fill:url(#XMLID_5_);}
	.st10{opacity:0.4;clip-path:url(#XMLID_4_);}
	.st11{clip-path:url(#XMLID_4_);}
	.st12{fill:#F4F4F4;}
	.st13{fill:#474342;}
	.st14{opacity:0.77;}
	.st15{fill:#595757;}
	.st16{fill:#FFFFFF;}
	.st17{opacity:0.47;fill:#565766;}
	.st18{fill:#3E3A39;}
	.st19{fill:url(#SVGID_1_);}
	.st20{fill:#54B5F7;}
	.st21{fill:url(#SVGID_2_);}
	.st22{fill:url(#SVGID_3_);}
	.st23{fill:url(#SVGID_4_);}
	.st24{fill:url(#SVGID_5_);}
	.st25{fill:url(#SVGID_6_);}
	.st26{fill:url(#SVGID_7_);}
	.st27{fill:url(#SVGID_8_);}
	.st28{fill:url(#SVGID_9_);}
	.st29{fill:url(#SVGID_10_);}
	.st30{fill:url(#SVGID_11_);}
	.st31{fill:url(#SVGID_12_);}
	.st32{fill:url(#SVGID_13_);}
	.st33{opacity:0.7;}
	.st34{fill:#383838;}
	.st35{clip-path:url(#SVGID_15_);fill:#383838;}
	.st36{clip-path:url(#SVGID_17_);fill:#383838;}
	.st37{clip-path:url(#SVGID_19_);fill:#383838;}
	.st38{clip-path:url(#SVGID_21_);fill:#383838;}
	.st39{clip-path:url(#SVGID_23_);fill:#383838;}
	.st40{fill-rule:evenodd;clip-rule:evenodd;fill:#1144B7;}
	.st41{fill-rule:evenodd;clip-rule:evenodd;fill:#3E3A39;}
	.st42{clip-path:url(#SVGID_25_);}
	.st43{opacity:0.3;}
	.st44{clip-path:url(#SVGID_29_);fill-rule:evenodd;clip-rule:evenodd;}
	.st45{fill:none;stroke:#FFFFFF;stroke-width:1.682;stroke-miterlimit:10;}
	.st46{fill:none;stroke:#FF0036;stroke-width:1.682;stroke-miterlimit:10;}
	.st47{fill:url(#SVGID_30_);}
	.st48{fill:url(#SVGID_31_);}
	.st49{fill:url(#SVGID_32_);}
	.st50{fill:url(#SVGID_33_);}
</style>










































<linearGradient
   id="SVGID_1_"
   gradientUnits="userSpaceOnUse"
   x1="10798.377"
   y1="3397.8381"
   x2="12458.55"
   y2="3397.8381"
   gradientTransform="rotate(180,6291.3916,3145.4268)">
	<stop
   offset="0"
   style="stop-color:#5CC3FF"
   id="stop8" />
	<stop
   offset="1"
   style="stop-color:#0027A6"
   id="stop9" />
</linearGradient>

















































<g
   id="g295"
   transform="translate(-1317.2522,-3572.0018)">
	<path
   class="st16"
   d="m 1349.49,3625.77 c -5.22,8.11 85.18,50.51 79.09,49.79 10.27,7.43 3.07,23.53 -0.86,32.9 -16.11,7.56 8.45,23.65 8.95,5.92 7.2,-14.27 14.19,-38.08 -2.81,-48.09 0,0 -72.55,-41.23 -72.55,-41.23 9.87,-19.98 42.41,-11.93 41.68,10.52 0,1.76 1.43,3.19 3.19,3.19 21.51,1.3 -5.44,-40.46 -25.35,-36.02 -14.43,-0.01 -27.03,9.25 -31.34,23.02 z"
   id="path292" />
	<path
   class="st16"
   d="m 1352.41,3578.84 c -17.51,1.28 -0.73,24.95 6.28,8.83 33.79,-16.52 75.76,10.2 74.94,47.9 0,1.76 1.43,3.19 3.18,3.19 2.76,-0.05 7.38,0.81 7.49,-3.19 1.05,-46.14 -51.22,-78.25 -91.89,-56.73 z"
   id="path293" />
	<path
   class="st16"
   d="m 1331.46,3597.21 c -4.18,0.23 -7.4,4.23 -6.55,8.36 -7.15,14.25 -14.07,37.99 2.89,47.96 0,0 72.54,41.23 72.54,41.23 -9.88,19.97 -42.4,11.94 -41.68,-10.52 -0.05,-4.67 -10.63,-4.67 -10.68,0 -0.95,37.06 55.11,44.93 64.4,9.08 0.62,-1.97 -0.23,-4.12 -2.02,-5.14 -14.74,-8.38 -77.29,-43.93 -77.29,-43.93 -10.33,-7.51 -3.02,-23.73 0.99,-33.14 7.88,-2.23 5.57,-14.64 -2.6,-13.9 z"
   id="path294" />
	<path
   class="st16"
   d="m 1320.54,3681.06 c -1.72,-0.03 -3.22,1.47 -3.19,3.19 -0.82,43.45 45.51,75.4 85.8,59.4 17.61,0.35 3.13,-24.8 -5.41,-9.4 -33.32,11.9 -70.34,-14.55 -69.72,-50 -0.08,-3.99 -4.74,-3.15 -7.48,-3.19 z"
   id="path295" />
</g>




































</svg>
